/* XPM */
static char *c6b90a83a857418ea444f9dbdcd6aa5eF7cwZ9JwDgMb9b1C[] = {
/* columns rows colors chars-per-pixel */
"64 64 150 2 ",
"   c #0E0D0F",
".  c #0F0E10",
"X  c #100F11",
"o  c #131312",
"O  c #161913",
"+  c #181B15",
"@  c #181918",
"#  c #35451E",
"$  c #37481F",
"%  c #384A1F",
"&  c #384722",
"*  c #3A4B22",
"=  c #394A21",
"-  c #3B4C23",
";  c #3B4D23",
":  c #3C4E21",
">  c #3C4F22",
",  c #3A4C21",
"<  c #3E5321",
"1  c #3D5022",
"2  c #3D5122",
"3  c #3E5123",
"4  c #3E5222",
"5  c #3E5322",
"6  c #3F5322",
"7  c #3E5223",
"8  c #3E5323",
"9  c #3F5323",
"0  c #3F5422",
"q  c #3F5423",
"w  c #3F5523",
"e  c #3F5323",
"r  c #405522",
"t  c #405423",
"y  c #405523",
"u  c #405622",
"i  c #405623",
"p  c #415623",
"a  c #405723",
"s  c #415723",
"d  c #425723",
"f  c #405524",
"g  c #415624",
"h  c #415724",
"j  c #425724",
"k  c #425626",
"l  c #435726",
"z  c #435627",
"x  c #435727",
"c  c #415623",
"v  c #415823",
"b  c #425823",
"n  c #415824",
"m  c #415925",
"M  c #425824",
"N  c #425924",
"B  c #435924",
"V  c #425825",
"C  c #435A24",
"Z  c #435A25",
"A  c #415926",
"S  c #425A26",
"D  c #445A24",
"F  c #445A25",
"G  c #445B25",
"H  c #455B25",
"J  c #445927",
"K  c #445A27",
"L  c #455A27",
"P  c #435C26",
"I  c #435D26",
"U  c #455C25",
"Y  c #445D26",
"T  c #445D27",
"R  c #445E26",
"E  c #445F26",
"W  c #445E27",
"Q  c #455E27",
"!  c #455F27",
"~  c #435B25",
"^  c #455A28",
"/  c #455B28",
"(  c #465B28",
")  c #465C28",
"_  c #475D28",
"`  c #475D29",
"'  c #495E2C",
"]  c #456027",
"[  c #466027",
"{  c #466127",
"}  c #476127",
"|  c #466227",
" . c #476227",
".. c #466127",
"X. c #486327",
"o. c #486327",
"O. c #466028",
"+. c #466128",
"@. c #476128",
"#. c #476228",
"$. c #476328",
"%. c #476228",
"&. c #486228",
"*. c #486328",
"=. c #486428",
"-. c #496428",
";. c #496528",
":. c #496529",
">. c #496628",
",. c #496629",
"<. c #4A6629",
"1. c #4A6729",
"2. c #4B672A",
"3. c #496528",
"4. c #4A6829",
"5. c #4B682A",
"6. c #4E6D2D",
"7. c #4E6C2D",
"8. c #506F2E",
"9. c #4F702D",
"0. c #50702D",
"q. c #50702E",
"w. c #51712E",
"e. c #51722E",
"r. c #51722F",
"t. c #52732E",
"y. c #52722F",
"u. c #52732F",
"i. c #52742E",
"p. c #53752E",
"a. c #53742F",
"s. c #53752F",
"d. c #53762F",
"f. c #54762F",
"g. c #54772F",
"h. c #55772F",
"j. c #52742F",
"k. c #54782F",
"l. c #55782F",
"z. c #55782F",
"x. c #547630",
"c. c #557830",
"v. c #557930",
"b. c #567930",
"n. c #567A30",
"m. c #567A31",
"M. c #577A31",
"N. c #567931",
"B. c #587C32",
"V. c #587C32",
/* pixels */
"' K ` x + @ @ @ @ o o + = * = * K ( ` x + @ @ @ @ @ @ @ @ @ o @ - - = * = = = = / ` ` g @ o o @ - ; ; = @ @ @ @ = - ; = = = = = ",
"K u b t o X o o o o o o # # # # u u K 1 o X o o o X X o o o X o # = % # # # # # w M b w o o o o # = # # o o . o # # # # # # # # ",
"` M U g O X o o X o X o # % # # x D D u o o o o o o o o o o o o & # # # # # # # w M M 1 o o o O $ = = # o o o o # $ # # $ # # $ ",
"x u g 1 + o o o @ o o o # % # % u u d 6 O o o o o o o o + o o + # # # # $ $ # $ M M U w o o X o # # # # o o o O # = $ $ # # # $ ",
"+ o @ + # # # & I ] ] U u g g u % % # $ # # # # o o o @ # # # # O o o O w b u M #.=.=.I o . o o o o o @ o o o o ] =.| ] $ # # # ",
"o o o o # # # % =.4.=.=.u M M M # # # $ # # $ # o o o O # % % # o X o @ u D b K =.=.=.#.o . o o o o X o o o o @ #.>.=.| $ # # # ",
"@ o X o # & # % #.=.&.#.b b M g % # # # % % $ # o X X o # % % # o o o o u K D K =.=.=.#.o o o o o o o o o o X o =.4.>.| % # % # ",
"@ o o o # # # # ] #.&.#.u g g u # # % # # # # # @ @ o O # # # # o o o o t u u u W ` #.M + o O o o o O @ o o o @ I #.] E % $ # # ",
"O o o o o O   O u M b g $ # $ # # # % # o o o O t u t t % # % # o o o o @ o o o @ @ o O # # # # # # # # o o o o o O o + & $ # # ",
"O X o o X o   O w K b u $ # # # # % % # o o o O u K D D # # % # o o o o o o o o . X . o # $ # # $ # & # o o o o o o . o # $ # = ",
"o o . X X o   o u U K K $ # % $ # # % # o o   o t K d u % # # # o o o o o o o o o o . o # # # # # # = # o o o o o o o o $ % $ % ",
"@ o o O O O O O 1 u u 1 # # # # % # % # o o o o u D K d % # % # o o o o o o o X o o o O $ = = $ # $ # & @ o o o o o . @ # # # # ",
"S w w u ] ] | v O o o O o o o O 1 D b 1 o o X O U &.&.X.u u K t @ X o o o o o @ # # # # i.i.i.9.M b M b # # # # o o o o o o o O ",
"` M M K o.>.>.] O         .   o u U U u o X X O #.=.=.&.D d K u o o o o o o X @ # = # , i.M.M.M.M w M b $ # $ # o o o o o o o o ",
"M b M M | o.4.C o             o w b v < o . . o #.4.=.=.K D H t o o o o o o o o # # # $ x.k.k.i.M M I b # & & & o o X o o o o o ",
"/ u u b | | >.C O o O o O O O O w b U < O o o O S #.U #.t t d t + o o @ o o o o # $ # $ i.i.k.i.u 1 u w # # & # @ o @ @ o o o o ",
"/ w b u $ # = $ 1 u u u w.w.w.w.b M M g # # # # O O O O O o o @ # # # # o o X O u M u b ;.;.4.] O o o o o o o @ & # # # o o o o ",
"/ u M g $ # # $ b D b K M.M.M.f.M u M M $ $ $ # o   X X o X X O # $ $ # o o X O g M M b ] ] ;.v o . o o . o o o $ $ $ # o o o o ",
"` M U M $ # # $ b b u D f.M.k.f.M b M M $ # $ # O o o o X X X o # $ $ # o .   o w M M M ;.;.>.] o X o o o o X O # $ $ # o . . . ",
"g 1 w 1 $ $ # $ u u < u w.f.f.i.b w M u # # # # o o o o @ O o + # $ # # O O o + u M M M U U ] b O . o o O o o O # $ $ # O o O O ",
"O o o O # $ $ # o o o O u U M M # # # # o o o o o o o o # # # # $ # # % U #.I U M M M w O O O O o o o @ & # # # $ $ # % x.x.9.q.",
"o X o o # # $ # o     o 1 M g u # # # # o X o o o o o o # $ $ $ # $ # $ =.=.=.=.M g K 1 o     o o o o o & # $ # # $ # % i.M.v.M.",
"@ o o o # $ $ # o o o o u U K b % # $ # .   o     o o o # $ $ $ $ # # $ X.&.&.&.b K U u o   o o o o o o # $ $ = $ # # $ i.k.x.k.",
"@ o o o # # # # O o o O 1 g w w # # # # O O O O O o o O # # # # $ $ $ $ ] &.&.] u 1 u 1 O o o O o o o @ # # # # $ $ # = i.i.i.i.",
"o o o o o @ o @ # # # # O o o o o o X O 6.x.w.9.` ] ] I O   o O w b u M M M K 1 O   O O # # # # o o o o o o o @ w b g u K K b b ",
"@ o o o o o . o # = # # o X o o o o . O i.B.M.M.=.=.4.U o o   o u b b b M M b w o .   o # # % # @ o o o o o X o u b M M u u w b ",
"@ X o X o o X o # $ & # o o o o o o . O w.M.M.f.=.#.=.I o     o u U K K K M U u o . . o # # % # o X o o o o X @ M U K M M U b M ",
"@ o o o O O o O # # # # + o o O X o . O w.M.i.i.#.#.=.I O o o O 1 u u 1 t t u > O O o O # # % # @ o o @ o o o @ 8 g u t u 1 w u ",
"@ X o o & & # # # $ # % U ] #.M O X X O ] =.=.#.b b b M w w u t O o o o o o o O I ] I U M M M u & # # # o o o o + o o o o o o o ",
"@ o o @ & & = # $ # # $ =.=.5.#.O o X O ] =.#.#.M u b M M M K u o o o o o o   o ] 4.=.=.M M M M & # = # @ o o o o o o o o o o o ",
"o o o o # & # # # # # $ ] &.=.U O X o O ] =.=.=.M b M M M K U u o o o   o o o o ] =.=.] w g M M $ # $ # o o o o o o o o o o o o ",
"@ o o o # # # # % $ $ $ X.=.=.] o X X O I ] ] W M g M w w w u > O o O o   o o O #.=.=.] M b M w # # # # o o o o o o o o o O o o ",
"o o o o o o o O U =.] #.&.=.=.] o X o o O o o O # $ # # O o o O # # # # o o   O i.M.i.i.] ] ;.I o o o o o o o o o o o o 1 M g u ",
"@ o o o o o o o #.=.&.=.=.=.=.U O . o o o o o o # # # # o     o # % % # o o   O k.z.M.i.;.;.;.I o . o o o o o o o o o O M U K K ",
"o X o . o o o o #.=.=.=.=.=.5.] o o o o o o o o # % $ # o   . o # # % # o o   O i.z.z.k.] ] ;.U o   o   o o o o . o . o u D u b ",
"@ o O O o o o O M #.W #.U ] ] M + o o o o o o o # # # # O o O O # # % # O o o O 7.0.p.9.;.] ;.U O o O O o o o o O O o + u K M M ",
"2.` #.W # # # # O o o O o o o O # # # # o o o o o o o O I #.U I % # % # # # # # O o o O U | | | 0.0.f.6.o o . O w.i.w.w.g u M D ",
"7.&.=.#.$ = = # o o o o o X o o # $ $ # o o o o o o o O #.4.=.#.$ # # # # % # # o     o ] ;.;.| k.k.B.w.o o   O x.B.B.k.M u g g ",
"2.] #.#.# # & # o o o o o o o o # $ $ # o o . o o o o o U =.#.] # # # # # # % # O . . O U ;.| o.k.k.M.w.o     O w.M.k.f.U D K D ",
"2.=.=.#.# # # & o X o o O o o O # $ # # O o O O o o   o ] 4.=.=.% $ $ % # # # # o o . o ] ;.o.>.i.i.f.7.O o o O w.x.f.w.w 1 1 u ",
"x.x.M.8.O o o o o o X @ # # # # # $ # $ ] ] #.I o o o O w.M.x.i.i.i.k.8.O   O o o o   O 9.z.p.p.M g M b w < 0 0 M M U w o o o o ",
"m.i.x.8.o X o o o o o o # = $ # $ # # $ =.=.=.] o o . o x.M.x.x.k.k.M.w.O     o o .   O p.z.k.p.M w b b b U v b M M D 1 o   o o ",
"V.m.V.x.o o o o o o X o # & $ # # # # $ #.=.=.U o o o O w.M.M.M.M.M.B.w.o   .         O p.z.k.k.M b b u v U b b M M I u o   o o ",
"x.8.x.7.O X X o O + o + # # # # $ $ $ $ #.=.4.#.o o X o 7.x.9.9.9.w.i.5.+ o O O O O O + 9.9.9.9.M b b u < w < < M M D 1 o o o o ",
"@ O o @ o o X o t u K t O o . O I &.#.=.x.i.M.9.o o o o O o o o o o X + 9.i.i.w.9.9.p.7.O o o O w M M 1 O   o O w b D < o o o o ",
"o X X X o o o O u | D u o . . O U =.#.=.i.M.B.w.o X o o o o o X X X   o k.z.k.k.z.z.z.p.o       w M b w o .   o w b D w o o o o ",
"@ o o o X X . o w v v < o .   o #.4.=.4.M.M.B.i.+ o o o X o o o o X X O i.B.k.k.k.p.z.9.o     O u K U u o     o w b b < o     o ",
"@ o o o O O O O w v v < O O o + S U I ` 6.8.x.7.o X X o O o o + o o   O 9.M.i.i.p.p.z.9.O O   + 1 t u > + o o O u b u < O o O o ",
"o o X @ 6.x.w.9.M b M M w w u 1 O o o o o o o O o o X o t g x 1 o o . O ] ;.;.| M M b K t t u > O o o O t u t t u g M M U #.U #.",
"@ o X O x.M.M.x.M w b M M M U u o   o o o o X o o o o O u U U g O . . O U ;.| | g u u u b D D u o o o o d K K D K u u b =.=.=.=.",
"@ o X O x.M.M.i.M w w b K M U g o o o   o o o   o o X o u K K 1 . .   o ] >.| ;.b u u b D D U u o o o o g U K M b u u b ] ] ] X.",
"@ o X O 9.v.i.i.I M M M 1 1 u ; O O o o o o o o o + o O u b D g O O O O b ] ] v M M K u u 1 u < o o o O > g t t b M g M ;.;.] X.",
"o o X @ ] ,.] =.p.p.p.9.O o o o # # # # o o o O t g u u g g M M ] ] | w O o o O g b D w o o o o o o o o o o o O U ;.] ] i.i.f.f.",
"@ o X O ] =.#.=.p.k.z.9.O     o # % % # o o   O g U D b M b u b o.o.>.] o     o 1 K D 1 o o o o o o o o o o X o ] ;.;.;.f.f.f.f.",
"@ o X o ] =.#.=.z.z.n.i.        # # # # o o o o g U K D M u M b | | ;.v o o o O u K U u o     o X o X o X o X + #.4.;.4.B.k.k.k.",
"o o X @ W =.#.#.9.9.9.9.+ O O + # % % # O o o + 1 g 1 u M M b M ;.>.>.| o X X o 8 g u 1 + o O O o + + o o o X @ I U I U 8.6.w.w.",
"o o o o u D K 1 O O   O 9.p.p.p.X.] X.] u u u 1 O o o O U =.] ;.i.k.M.9.o X o o o O o O I ] ] ] #.#.=.M o o o X o o o o o o o o ",
"o o o o u b D t       O 9.z.k.k.;.X.X.&.D x K u o     o ] =.=.=.f.k.M.w.o o o o X o X o ] 4.=.=.=.=.4.#.o X o o o o X . o . . . ",
"o X   o g U U g O   . O i.k.k.p.;.] ;.] u u K 1 o . o o #.4.=.4.k.M.B.w.o X X X o o . o ] ;.;.] #.#.=.U o X X o o o . o . . . . ",
"+ O O + > u g 1 O . . O w.k.p.p.;.] ] ] M b K u o o o O M ] U U w.w.w.7.+ o O O o o . O ] =.;.| #.#.=.I + o + O o o o o O O O O ",
"M.x.x.7.+ o o o o o o O U =.;.] w u g w ] | ;.I O o o o o o @ o o o o + w g M 1 o o X O 9.M.x.i.g w b M u u g 1 o . o O 9.f.i.i.",
"V.x.m.x.o X o o o o   o ] =.;.] M u w b X.=.=.U o . o o o X o X o o o o b U U g o o . O w.M.k.i.M w w b b K U g o o o O k.B.M.M.",
"B.i.x.x.o o o X o o X o ] ;.] ] M w w b ] ;.;.I o o o o o o o o o o X o u K K u o o   O w.M.i.i.M b w b b u K 8 O o X O i.M.i.k.",
"x.x.x.8.o X o o o o o O ] =.] ;.M u u M ] X.;.] o . o o o X o o o o o @ u K K g O X X O 9.M.k.i.M w w b b b K 8 o o X O w.M.i.M."
};
