/* XPM */
static char *_da42ca08c804d56d54dd5f7c5791f209M8VEtriyUTB9oQf[] = {
/* columns rows colors chars-per-pixel */
"64 64 256 2 ",
"   c #080907",
".  c #160905",
"X  c #061707",
"o  c #17140A",
"O  c #0A1717",
"+  c #171817",
"@  c #0F0D13",
"#  c #280302",
"$  c #28180E",
"%  c #08261B",
"&  c #102D13",
"*  c #352C15",
"=  c #0D182D",
"-  c #102E2E",
";  c #352F2F",
":  c #241B26",
">  c #4C1415",
",  c #77141C",
"<  c #731217",
"1  c #442C1A",
"2  c #4C3517",
"3  c #6F3613",
"4  c #751625",
"5  c #463625",
"6  c #523030",
"7  c #72342F",
"8  c #571523",
"9  c #274B15",
"0  c #18770B",
"q  c #1B7D12",
"w  c #167912",
"e  c #166D10",
"r  c #277C09",
"t  c #296A10",
"y  c #114934",
"u  c #335831",
"i  c #256C31",
"p  c #514C1A",
"a  c #6B4916",
"s  c #557512",
"d  c #514E33",
"f  c #6E5032",
"g  c #516D31",
"h  c #766833",
"j  c #787316",
"k  c #11304F",
"l  c #33334D",
"z  c #0B3679",
"x  c #143579",
"c  c #0F2C6E",
"v  c #2B3C6A",
"b  c #4C334B",
"n  c #742E4B",
"m  c #4B3565",
"M  c #693F75",
"N  c #601D4E",
"B  c #11494E",
"V  c #354754",
"C  c #0E6F4F",
"Z  c #306C51",
"A  c #0C4A7B",
"S  c #134B7A",
"D  c #0E5372",
"F  c #304971",
"G  c #0A6B73",
"H  c #2F6673",
"J  c #514F4E",
"K  c #785A49",
"L  c #785958",
"P  c #704F4E",
"I  c #557056",
"U  c #786549",
"Y  c #676757",
"T  c #776655",
"R  c #71704C",
"E  c #4F516B",
"W  c #654379",
"Q  c #705366",
"!  c #54716F",
"~  c #786766",
"^  c #666B7A",
"/  c #707171",
"(  c #980B0D",
")  c #9B0C12",
"_  c #950D15",
"`  c #8A1317",
"'  c #971318",
"]  c #8B100D",
"[  c #A01016",
"{  c #8F2E0D",
"}  c #B3310E",
"|  c #AC2518",
" . c #AE3013",
".. c #9B162A",
"X. c #881A2C",
"o. c #A2172D",
"O. c #98293A",
"+. c #903230",
"@. c #AE302E",
"#. c #CF3A33",
"$. c #E03F2D",
"%. c #8A501B",
"&. c #B5501B",
"*. c #946D19",
"=. c #85583A",
"-. c #93522F",
";. c #AF4C2F",
":. c #966928",
">. c #8E6F34",
",. c #B67838",
"<. c #AA6F30",
"1. c #A3781C",
"2. c #C75218",
"3. c #C85114",
"4. c #CF6D15",
"5. c #D34A31",
"6. c #E34C35",
"7. c #CE742F",
"8. c #E46B34",
"9. c #9D2A44",
"0. c #893B44",
"q. c #88304D",
"w. c #AF3045",
"e. c #8C1D49",
"r. c #C23649",
"t. c #874545",
"y. c #875848",
"u. c #894A57",
"i. c #885758",
"p. c #955958",
"a. c #975049",
"s. c #AE5350",
"d. c #856747",
"f. c #976747",
"g. c #976856",
"h. c #897A57",
"j. c #997A59",
"k. c #8E724D",
"l. c #A66659",
"z. c #A67858",
"x. c #B2704F",
"c. c #975C66",
"v. c #8A566F",
"b. c #A85964",
"n. c #A75672",
"m. c #886766",
"M. c #986A66",
"N. c #887768",
"B. c #867976",
"V. c #997775",
"C. c #93706F",
"Z. c #B57766",
"A. c #A56879",
"S. c #A77978",
"D. c #B06D6B",
"F. c #C7564E",
"G. c #E45543",
"H. c #C86856",
"J. c #CF704F",
"K. c #C87967",
"L. c #CE706F",
"P. c #D66462",
"I. c #298914",
"U. c #38900D",
"Y. c #208316",
"T. c #48900E",
"R. c #79900D",
"E. c #718A32",
"W. c #4B9530",
"Q. c #0D8A51",
"!. c #208968",
"~. c #548752",
"^. c #70854E",
"/. c #71886E",
"(. c #6A9D73",
"). c #889013",
"_. c #B38D2F",
"`. c #BAA82D",
"'. c #AA8B18",
"]. c #D38819",
"[. c #CB8D19",
"{. c #CB8F29",
"}. c #D1AF2A",
"|. c #D49726",
" X c #928754",
".X c #B18D54",
"XX c #B8A656",
"oX c #878879",
"OX c #998577",
"+X c #948F6C",
"@X c #B78965",
"#X c #AE9070",
"$X c #B1A970",
"%X c #92AC6F",
"&X c #CA8E54",
"*X c #C9916E",
"=X c #CEAD72",
"-X c #CBAD52",
";X c #E7C176",
":X c #072E84",
">X c #0A3585",
",X c #11348B",
"<X c #114F89",
"1X c #3B4986",
"2X c #385092",
"3X c #056E86",
"4X c #0F7093",
"5X c #2F7396",
"6X c #2D7AAB",
"7X c #176AA7",
"8X c #4A5390",
"9X c #6F5185",
"0X c #4D7292",
"qX c #6D748E",
"wX c #6879A7",
"eX c #895589",
"rX c #8E5486",
"tX c #97648C",
"yX c #976598",
"uX c #90728F",
"iX c #A8708B",
"pX c #906C9B",
"aX c #CB7C87",
"sX c #149287",
"dX c #0F9387",
"fX c #328396",
"gX c #1682B8",
"hX c #2F83AE",
"jX c #4E8699",
"kX c #6F8E91",
"lX c #4786A9",
"zX c #738FA4",
"xX c #8A8B89",
"cX c #969789",
"vX c #92908F",
"bX c #A68584",
"nX c #B49786",
"mX c #AE928C",
"MX c #B8A68A",
"NX c #BAA996",
"BX c #AEAB92",
"VX c #B3B0A9",
"CX c #A09B9F",
"ZX c #C8868C",
"AX c #C59488",
"SX c #C98695",
"DX c #C49695",
"FX c #D78B90",
"GX c #C6A797",
"HX c #D5B699",
"JX c #CCB08F",
"KX c #CEB7AD",
"LX c #D5A4A3",
"PX c #D7C9B1",
"IX c #DFC7A0",
"UX c #DACFC4",
/* pixels */
"XXXX`.`.|.[.[.7.8.8.$.3.$.&.%.%.+.;.a a O.@.+.7 n e.e.N 6 6 b v v v <X<X<XD G G C C y % y X X o o o . @ O   . 3 @Xx.A.mXzX! I E.",
"$XXX`.[.`.[.|.{.4.6.$.$.3.} { 3 { ;.a 3 +.+.+.7 e.e.n n J b m m v F F <XG D D C C C y y y X p >.>.j * . o X * >.-.-.n.P F Z u t ",
"$XXX`.`.}.[.|.8.8.6.6.$.$.#.;.{ +.+.+.-.f 7 7 O.e.n N 7 d u m m E k : k D D D G C Q.y % & d `.'.'.[._.$ o   2 *.{ %.t.; - - y V ",
"XXXX`.`.|.|.].|.8.6.6.$.$.5.#.;.@.@.@.O.%.3 +.9.e.n 7 J 6 ; b m l = : : - B k C C Q.y y 9 ).'.'.'.'.{.*.  $ R  X%.:.7 $ V I V B ",
"XXXX`.`.}.}.].7.8.6.6.$.$.$.#.@.#.#.w.o.+.+.O.e.e.e.n N n N b : : + + : X O O % % Z y % 9  X'.'.'.[._.>.g cX$XE.R.j $X*X#XmXuX/ ",
"=X$XXX-X_.*.*.&X8.8.5.6.5.$.G.r.r.@.w.w.-.0.9.9.e.n q.n n M 8 ; * $ o + $ + o o O % y y & h `.*._.'._.>./.xX~.g s )..X=X*XK.iXA.",
"$X$X$XXXa 2 p =.x.J.G.6.G.$.$.#.r.#.r.w.0.0.q.n n q.n n e.n N m.#XK 5 o o + @ + % % O - 9 9 `.a _.j h.* & y Z Z h )..X&XJ.F.p.n.",
"%XXX$X+Xg K f a 3 s.G.G.G.G.5.F.#.r.w.O.8 > > > > 7 n n n n n GX=XJXnXL $ o + + + O % % y X a XX>.h * O - V H V d h :.:.<.s.n.q.",
" XMXnX X XXXXX@X=.3 P.G.6.G.F.@.w.r.b.4 * : : * * 1 6 1 6 N P T #X.X3 z.i.f .   o + @ O y % $ >.j f * + = v F V g d p a -.s.9.+.",
"OXGXGX$X.XXX@X@X X>.H.J.J.H.H.s.F.w.9.> 1 1 * * 5 5 5 5 1 6 1 f =Xx.l.f.=.g.m.P o o + - y % o k.a h ; = - k = k y 9 * p 7 4 8 8 ",
"MX$X$X%XXXXX@X.X X Xf.f.j.Z.K.H.F.F.3 f +Xk.p 5 7 d 1 ; 5 2 a @XH.x.=.y.l.M.D.iXL # @ - y - p k.XXj o % = - - = y u g 5 6 6 l l ",
"JXNXVXBX$X X.X XE.E. X>.g.z.J.F.F.s.+.f. Xk.U 2 a.f.6 1 1 2 a 3 3 f U T K K p.P i.b d - ; & 2 2 :.3 $ : O % = O 9 u g h b b l b ",
"JXIXPXBXHX$Xk.R R ^.+Xz.K.P.G.J.F.F.O.a.k.p h a x.,.-.2 1 1 1 5 J ~ Y J d R c.i.i.bXKXBXoX+Xf a { %.-.=.g u u u i Z I R Q v.U h ",
"BXIXPXPXIXIX=X.X X+XcX#XJ.P.G.F.s.H.s.x.d.R d =.x.&Xx.f 1 5 2 * b E I R p p K m.bXVXVXPXPXPXJXAXx.:.-.>.%X$X%X%X%X~././.m.p.f :.",
"=XJXIXIXIXJX=X+XcXmXGXGXL.J.J.F.H.K.f.g.R d R h :.x.a f 2 * 5 ; d m.j.#X_.>.k.N.bXmXBXcXVXNXNXPXKX%X+X(.(.(.%X%X+X+XY Y bXS.-.-.",
"$XIXIXIX=X=XXXXXmXCXnXLX=XH.J.J.x.x.z.y.f f f h -.>.d.h 5 5 2 1 g.M.@X*XXX Xh.OX/ +XoXoX/.cXCXBXVX(.~.~.~.^. X X.X.X$Xf m.OXa.>.",
"-XIX=X*XJX=X=X$XoXxXvXnXMX*XH.J.*X*Xl.p.s.s.u.Z.Z.=.f 5 5 5 1 f T #XNXNXMXcXj.V.N.B./ oX/ xX/.oXBXcX~.!.I %X Xf.f.<..Xz.f T N.j.",
";X;X=X@X@X.X X X/./.cXoXU S.H.P.#XS.u.s.F.H.Z.g.l.K 1 * * 1 1 K +XnXoXuXoXbXS.V.OXN.OXBXcXoX/ oXBXCX(.~.+X+X Xy.y.y.x.@XN.Y U h.",
"-X*X&XK.j.R h.+XR h.MXN.R z.H.L.bX/ c.b.l.FX*XnXg.6 6 6 5 2 7 b.P cXB.Y L OXS.D.GXV.S.LXUXNXJ +XVXBX+X/ h.V.C.P p.a.f.Z.vXB.T  X",
"=X&X*Xx.N./ VXxXcX#X X+XT j.D.D.bX~ P b.a.LXHXPXj.5 7 6 d 1 f bX1 K P f 7 p.S.OXnXOXc.S.KXNX~ cXKXMXOXU y.M.i.f g.t.p.iXxXkX+X$X",
"=X*XZ.d./ qX/.xXvXvX5 h OX#X#XC.~ L m.y.g.HX#X@X@X=.f f P g.j.DXmXM.t.+.X.-.A.OX@Xg.a.b.mXA.m.bXS.i.=.t.M.C.K P N.n bXKXzX/.~.%X",
"K.z.#X+X/ /.^ CXCXB.~ OXOXN.d f MXnXHXnXnXGX X*X.X.Xj.M.nXPXnXAXKXnXa.a.a.s.g.d..X@Xs.p.c.i.i.u.u.u.u.p.c.i.P L i.n VXKXVXqXg ~.",
"x.<.R ^.~.kXkX^ ^ vXiXZ.Z.f L +XJX=XJX$X+X+X.X>. X=XHXPXKXLXmXiXiXm.i.p.a.a.>..X-XJ.x.0.u.u.n.A.iXiXc.A.C.u.P V.L iXKXVXCXB.J g ",
",.>.^.~./.! ^ qXkXkXm.ZXD.l.#X+X.X.X.X+XoX+X+X$X=XHXHXGXnXLXnXy.p.y.p.f.z.Z.f.@X_.x.H.a.7 P n L v.v.v.Q Q b eXuXP iXiXA.iXM.U R ",
";.>.^.~.! kXJ vXkXI NXmXL.L.*Xk.j .X>.R I g oXNXHXIXMXf a.y.LXg.t.z.JXz.x.@X X Xz.x.l.c.u.P b b 5 b b b b ~ uX~ DXv.7 b.n.b.=.d.",
"j.=.^.R ! Y J oXoXY oXiXH.H.D.K.k.f f R d J Z / VXJX#Xf Z.7 AXGXFXHX-X.X<.f.R / g.b.c.u.v.DXJ J / Q Y J J ^ / uXuXiX7 X.w.b.f K ",
"cX/.~.~.I d h.k.h $XY ~ L.K.x.l.Z.l.f P J I I I VXKXMXd.f M.NXNXIX-X-X-X@Xg.mXnXi.a.s.s.u.iXbXB.vXE ! E J E ! qX/ m.s.@.a.iXmX/ ",
"kXI u s h.k.k.k.>.k.OXV.t.D.x.;.s.l.p.N.oXJ I cXNXHX=X#X@X*XMXBXHXXX.X.X$XnXKXmXA.n.H.s.u.M.C.#X/ J J J l E E ! qXT f.H.FXKXCXkX",
"! ! g >.k.>.>.'.>.>.>.=.f mXz.-.-.l.l.S.cXKXBX.X.X=X=X_.,..X#XnXNXNX.X#XGXOXbXS.S.c.D.iXp.c.D.Z.M.L Y ; ; F ! H E K x.K.DXVXkX(.",
"J J R >.:.1.*.*.'.1.1. XY P g.l.-.s.D.S.cXJXXX>._.7._.{.[.7.<.#XNXBXnX#XnXcXP bXiXi.DXDXc.b.b.L.S.OXJ = - V ! ! d #X*XK.DXvXkX!.",
"d h =.:.:.*.:.<.*.*.1.:. XoXcXm.b.x.D.V.MXHXXX_.,.7.{.4.4.[..X.XNXN.t.7 m.bXm.mXV.i.DXDXC.A.b.L.iXSXB.  - ; !  XXX;XFXLXVXCX(.~.",
"f y.z.,.&X&X&X&X,.%.*.>.=.nXB.Q L.D.D.N.MXHXJXf.:.4.7.[.4.{.&.x.#XK 7 Z.nXB.BXKXV.C.AXS.m.M.n.FXaXSXUX; * J d  X&X,.L.DXGXVXBX/.",
"~ N.z.&X&X,.,.&X&X:.:.:.k.j.m.P b.Z.l.y.a.Z.LX#X+. .8.8.{.4.{ s.N.m.P f MXcX/ OXV.M.K.H.M.A.A.aXSXiXPXc.* h.f .X&X5.H.D.iXCXcXkX",
"I 5 d.-.&X<.%.&X&X&X%.,.x.7 7 t.X.+.+.+.O.+.nXbX+.{ &.&.&.{ ` s.i.OXGXcXcX/.I cXbXA.Z.b.iXC.v.mXLXpXDXuXu cX X Xl.l.iXiXiXuXjX~.",
"9 R  X*.&X-.%.x.&X&X1.<.K.;.O.o...+...+.s.a.V.M.O.{ { &. .{ ' a.i.uXOXcX~.i ~.Z C.iXiXrXtXuXv.pXvXzXwXwX! zXkXkX^ qXwXwX0XqXkX! ",
"%X$X@X@X&X&X*X*X&X=X.X<.x.s.@.@.| @.@.@.l.p.B.iXb.+.;.;.5.| ..b.A.B.+XR y C ~.u c.rXiXtXtXtXpXuX8X8X5X5X5X5X5X5X0X5X0X5X0X0X^ ~ ",
"cXh. Xj.x..X&X@X*X.Xk.f =.*Xs.@.@.@.@.s.f.~ qXeXu.7 ;.@.#.@.X.n.A.v.y.K u ! I K p.n.tXiXyXyXyXpXCXwXlXhXhX6XfX6X6X6X6XqX^ m.a.+.",
"HXJXGX#Xz..X@X@X*X@X#X$X%Xh.@Xx.s.;.x.f.h /.E v W n 7 X.{ +.n tXtXA.m.P J d d K a.b.n.yXiXyXpXpXpXwXwX6X6X6X5XA 7X6X0X0X^ v.c.a.",
"f.@XJXJXJXHXHXJXJX=XJX$X%Xt s E. XR a g Z B H jXzXqX^ qX^ m m m v.tXtXiXm.c.p.b.n.tXyXyXpXyXyXyXyXpXwXwX6X6X2Xk 4X6X6XhX6X5X9X/ ",
"a a a a f f h f g h g T.s T.U.U.r r U.W.i C H H 0X0XqXqXwXm E pXeXyXyXtXtXn.A.A.iXyXyXyXpXyXyXyXyXpXpXwX6X6XS = A 6XgXgXgX6X5X0X",
"T.j s s s s s s s s T.T.T.T.T.U.T.T.U.T.W.W.W.(.9X9XqXeX9X9XeXeXyXtXtXyXiXtXtXyXtXtXrXyXyXyXyXyXyXpXpXpXwX0Xc = k 5XgXgXgXgX6X6X",
"T.T.s T.T.T.T.T.T.T.T.T.T.T.U.U.U.T.U.U.U.T.W./.uXyXyXyXyXiXyXyXyXyXyXyXyXyXyXyXyXyXyXyXyXyXyXyXyXyXyXyXuXqXF k k B 7X6XhXgXhXgX",
"r r r r r r r r I.r I.I.U.U.I.I.U.I.I.I.I.I.T.g Q rXv.rXeXeXv.v.W eXeXeXW rXeXeXeXrXeXrXeXeXrXeXeXeXeX9XeX9XwXm k = :X7X<X7X7X7X",
"e 0 e 0 0 0 r t 0 0 0 0 r r 0 0 Y.Y.Y.Y.r q w e $ M M M W W W W W m M M M M M M M M W M M W M 9XW 9X9X9X9X9X8X,Xk k c z ,X:Xc c ",
"e 0 0 0 0 0 0 0 w w Y.Y.r r q q q I.q q q q i t X = m 8XF 1XF 1X1X1X1X1X1X1X1X1X1X1X1X1X1X1X2X2X2X2X8X8X8X8X2X,Xc c z z ,Xz E ! ",
"0 0 0 0 t 0 0 0 w w 0 0 q t q q q q q q q q I.i X @ = k S S A <XA S A A S A A A <X,X<X<XA S <X<X<X<X<X<X<X<X<X,Xz z x x ,Xc E qX",
"e 0 0 0 0 0 0 0 0 w w w q Y.q q q q w q Y.Y.w e X   O = k H G G G 3X3X3X3X3X3X3X3X3X3XG G 3X3X3X3X3X4X3X3X4X4XA z >X>Xc k F z c ",
"e e 9 t t t t t t t t i t t t t t t i t e t t y X @ @ O O B fXsX!.dXdXdXdXdXdXdXsXsXsXsXsXsXdXdXdXsXsXdXsXsX4XA >X>X>Xx kX2X:X,X",
"U d.h.>.*.).'.>.h  X X/  X+XN.j.V.OXN.h. XN. XI   @ @ + O   - C Q.Q.Q.Q.Q.Q.Q.Q.Q.Q.Q.Q.Q.Q.Q.Q.Q.Q.!.Q.Q.Q.3XA z z z z F S ,X,X",
"#X*X&X&X1.1._._.&X#XAXZXSXFXZXAXSXSXAXDXAXDXGXV.@   @   : O   % i i e 0 0 0 0 r 0 t w q e e 0 0 e e e w w i Z B c z c c c >X:X,X",
"aXK.J.,.:.a a %..Xx.*XaXSXZXZXZXaXLXLXaXSXSXDXV.  @ @ ; vXY + X X g R.R.R.R.'.).).).).R.).R.).).R.R.R.R.R.T.~.; c c qXE z :X:X:X",
"aXK.7._.f 3 2 :.7.&X*XaXZXZXZXZXaXaXaXaXSXSXDXA.. +   Q UXcXO o . . '.}.}.}.|.}.}.}.}.}.}.}.}.}.}.}.}.}.}.-X$XV c c F F c ,X:X,X",
"iXK.7.,.%.a 3 *.7.J.aXaXaXaXaXSXFXaXFXLXSXaXFXA.. @   ; ~ J . . # 3 4.[.].].].4.].].].].].].].7.[.{.[.].].{.@Xl c ,Xc c c c ,X:X",
"aXL.K.7.,.,.<.<.&XP.aXaXaXFXaXFXaXaXaXaXaXFXFXA.. @ @ @     . # -.7.4.4.4.4.4.4.4.4.4.4.4.4.4.4.4.4.4.4.4.7.g.6 k :X:X,XwX<Xc ,X",
"F.s.F.5.&.7.7.7.F.H.n.P.P.P.L.P.L.L.L.L.aXaXL.D.. @ @     . # -.5.&.&.&.&.3.3.3.3.3.3.3.2.2.2.2.2.3.2.2.&.&.f.b c ,X:X:X2Xx :X,X",
"` ` ] ] ] { ] ] ] ` ` ` X.X._ ..` _ _ ' _ ) ..< . @   . . > +. . .}  . . .} } } } } } } } } }  . . . . .}  .=.b c :X:X:Xc c ,X,X",
"` ] ` _ ] ] ] _ ( _ ' _ _ ) ' ( ( ' ' _ _ _ _ < #   . . > +.o.|  .| } | | | | | | | | | | |  .| | | | | | o.N N c :X:X:Xc ,XwXv ",
"_ _ _ _ _ _ ' ' _ ( ) ) ) ) ( ( [ ( ) ) [ [ ) < # . # > ` ( _ _ _ ] ] ( ( ( ( ( ( ( ) ( ) ) ] ] ) [ _ _ _ X.4 N c :X:X:X:Xc v l ",
"_ _ _ _ _ _ ) ( ) _ ) ) ) [ [ ( ) [ [ ) [ ( _ ` # # < X...' ..' ..' | ..o.o...o.o.o.o.o.o...o...o.o.o.O.o.e.q.m v c :X:X,X,Xc :X",
"< 4 , , , 4 , , , , , , , 4 ` ` , , X.4 X.X.4 8 # 7 n 9...O.X.9.O.O.O.O.9.9.9.9.9.9.9.9.9.O.9.9.9.9.9.9.w.9.n N c c c c c c c c ",
"B./ ^ Q E ! Q E E Q E Y J P m b b m b b b b b b W / v.v.u.u.u.u.u.P n n q.q.u.P n u.u.q.t.0.-.t.q.0.a.0.t.t.i.J m V m V m v m V ",
"zXzXjXkXzXjXjXjXjXjXjXjXjXjX0X0X0X5X5XF v v x x F 8XCXbXpXCXmXCXbXbXV.~ Q P L L L L Q i.i.y.u.y.p.y.p.a.y.i.d.L T ~ ~ ~ ~ ~ ~ ~ ",
"jXfXlXlXhXjXfXfXjXfXjXfXlXhXhXhX3X4X5X7X7X<XA z x x x wXvXxXvXxXvXvXcXxX/ J Q Y Y Q Y L K y.y.y.y.h y.y.d.i.y.K R U L K T T L T ",
"5XfX5X5X5X5X5X5X5X5X5X4X5X7X4X4XgX7X4X7X4XA >X>X<X<Xx F zXvXxXzXvXvXxXcXoXY Y J P Y Y T K h =.y.h =.U U y.U K h U U h d.K U U U "
};
