/* XPM */
static char *a85bbcd3e55844dcd67c1cad4a1d4ae7XhkaLTxpos7wcefs[] = {
/* columns rows colors chars-per-pixel */
"64 64 256 2 ",
"   c #0C0B0B",
".  c #080804",
"X  c #170807",
"o  c #06140A",
"O  c #1A180D",
"+  c #091715",
"@  c #171717",
"#  c #0F0E12",
"$  c #26181A",
"%  c #32110C",
"&  c #102D14",
"*  c #332915",
"=  c #171D23",
"-  c #281823",
";  c #3A1723",
":  c #3D0E24",
">  c #152C29",
",  c #272824",
"<  c #372924",
"1  c #373628",
"2  c #393936",
"3  c #2C342F",
"4  c #4E1012",
"5  c #76150D",
"6  c #7A0B12",
"7  c #7B1614",
"8  c #730F0E",
"9  c #48380A",
"0  c #4B3916",
"q  c #593919",
"w  c #512C0F",
"e  c #683818",
"r  c #703016",
"t  c #4F1829",
"y  c #6F1931",
"u  c #462B2A",
"i  c #572829",
"p  c #493928",
"a  c #463A37",
"s  c #583231",
"d  c #663729",
"f  c #673A35",
"g  c #732B30",
"h  c #175B0A",
"j  c #184A16",
"k  c #175416",
"l  c #09520F",
"z  c #295704",
"x  c #2E5313",
"c  c #0C6309",
"v  c #146409",
"b  c #156716",
"n  c #0E6B16",
"m  c #2C7112",
"M  c #394527",
"N  c #3B4637",
"B  c #2E5230",
"V  c #17742D",
"C  c #2B7431",
"Z  c #194C23",
"A  c #534C14",
"S  c #774517",
"D  c #70510F",
"F  c #4E7314",
"G  c #6B650A",
"H  c #49463A",
"J  c #55483A",
"K  c #514D2E",
"L  c #694927",
"P  c #774926",
"I  c #674939",
"U  c #6A5A39",
"Y  c #795738",
"T  c #74502D",
"R  c #4E7133",
"E  c #7A6538",
"W  c #716C2B",
"Q  c #073A4D",
"!  c #2F3048",
"~  c #51344D",
"^  c #6C334E",
"/  c #03455A",
"(  c #114A53",
")  c #334E51",
"_  c #306E51",
"`  c #13526B",
"'  c #295867",
"]  c #2E556A",
"[  c #196772",
"{  c #2E6770",
"}  c #157148",
"|  c #494B46",
" . c #574B46",
".. c #48564A",
"X. c #56564B",
"o. c #5B5856",
"O. c #4A5154",
"+. c #685748",
"@. c #755A46",
"#. c #685A57",
"$. c #755956",
"%. c #6E4949",
"&. c #536C4E",
"*. c #686544",
"=. c #77654C",
"-. c #68665A",
";. c #766659",
":. c #737650",
">. c #585D67",
",. c #715666",
"<. c #5B6A66",
"1. c #567476",
"2. c #686766",
"3. c #786767",
"4. c #6A7668",
"5. c #77756B",
"6. c #787975",
"7. c #6C6F76",
"8. c #88090D",
"9. c #920A0D",
"0. c #870A13",
"q. c #940B12",
"w. c #980B15",
"e. c #8C1418",
"r. c #883418",
"t. c #8A2D19",
"y. c #901832",
"u. c #A71B38",
"i. c #A61F2E",
"p. c #92322E",
"a. c #A6282A",
"s. c #A82839",
"d. c #A93B39",
"f. c #B6383A",
"g. c #AD332C",
"h. c #C43834",
"j. c #CC301A",
"k. c #935413",
"l. c #9A771B",
"z. c #906F17",
"x. c #A57319",
"c. c #8E5031",
"v. c #B74733",
"b. c #AC4A31",
"n. c #90712E",
"m. c #A96E2B",
"M. c #A5591C",
"N. c #C54B35",
"B. c #C3431E",
"V. c #913146",
"C. c #A73947",
"Z. c #B63943",
"A. c #AA2F49",
"S. c #C43C41",
"D. c #964845",
"F. c #885747",
"G. c #905150",
"H. c #A64546",
"J. c #AC5052",
"K. c #876649",
"L. c #966847",
"P. c #876957",
"I. c #897658",
"U. c #977658",
"Y. c #92734B",
"T. c #B06F50",
"R. c #8F576A",
"E. c #876868",
"W. c #877568",
"Q. c #977768",
"!. c #887976",
"~. c #957877",
"^. c #8D6774",
"/. c #A87968",
"(. c #B17072",
"). c #AE5667",
"_. c #C9524D",
"`. c #CA7356",
"'. c #C36C68",
"]. c #378517",
"[. c #198536",
"{. c #0E842C",
"}. c #298634",
"|. c #468911",
" X c #798718",
".X c #538B31",
"XX c #70982E",
"oX c #338F4C",
"OX c #359C54",
"+X c #538B4E",
"@X c #6E8755",
"#X c #549265",
"$X c #688564",
"%X c #718B6F",
"&X c #6EA46F",
"*X c #42AA6F",
"=X c #948C1D",
"-X c #BA870A",
";X c #AB8B18",
":X c #B78916",
">X c #AE9419",
",X c #948A31",
"<X c #AC8929",
"1X c #A68A35",
"2X c #B59737",
"3X c #AF8F2E",
"4X c #90B831",
"5X c #C28F1A",
"6X c #A0C33B",
"7X c #918A51",
"8X c #B3904F",
"9X c #B9A553",
"0X c #9B8567",
"qX c #878677",
"wX c #919072",
"eX c #A79668",
"rX c #B48778",
"tX c #AC8A71",
"yX c #91A879",
"uX c #B7A674",
"iX c #B0A670",
"pX c #95AA50",
"aX c #CA8E55",
"sX c #C99379",
"dX c #C9B271",
"fX c #C7AE5A",
"gX c #136384",
"hX c #2E6E8C",
"jX c #0B5E80",
"kX c #577689",
"lX c #47768E",
"zX c #657986",
"xX c #7B7988",
"cX c #8E7782",
"vX c #BE7488",
"bX c #C4748B",
"nX c #C47088",
"mX c #58868D",
"MX c #738C8D",
"NX c #79A583",
"BX c #8F908B",
"VX c #AD928B",
"CX c #99A891",
"ZX c #B2A790",
"AX c #AEB7AE",
"SX c #CBB28D",
"DX c #CEAC98",
"FX c #B6C9B6",
"GX c #CCC194",
"HX c #E5C397",
"JX c #C6C9A5",
"KX c #CECDAE",
"LX c #F0C8B6",
"PX c #B6D3C8",
"IX c #AED3C2",
"UX c #E1D1C8",
/* pixels */
"y y : - -   . . . . #   . . . . . X r M.k.l.=X;X;X<Xz.c.B.j.j.g.g.e w d y.y.u.y.t 4 ; % . H qX-.1 H X.-., @ #   # . & l l n C oX",
"y y : - - # .   . # o o . . . X X X r k.k.x.>X;X;X;XG r B.j.B.g.k.5 r t.i.u.y.y.y : ; X | qXqXJ J wXCX!. .# . # o o & l l c C oX",
"y y : - - X . . + > > + o   # # X X r M.k.x.;X;X:X3XG 9 B.h.t.k.g.t.a.a.u.u.y.y.y : ; ; ;.5.3.X.%XqX6.qXBX .    + o & l l n oXoX",
"y y : - : X # 3 > > > > +       O X r M.k.x.>X;X<Xl.G 9 v.g.e w p.g.a.i.u.u.u.y.y 4 ; a o.#.X.<.2.5.+.o.5.5.|     o & l l V [.oX",
"y y : - : #   @ + > & + + o + # O X r M.k.x.>X>X:X3Xn.D v.b.A 9 p.g.p.a.u.u.u.u.y t t a o.-.X...5.3.o. .5.5.2., o o & h l n } OX",
"y.y : - - - # # + + > 3 2 3   # o X S M.k.x.4X>X3X2Xm.M.B.b.q A c.p.t.p.u.u.u.y.y t : ~ X.| 1 , 3 < 1 1 H 6.X.O o o & l l n [.OX",
"y ^ : : - # # = + = < %.f %.X X O X k.M.k.x.>X>XG G m.M.N.N.r.S P e g p.A.u.u.u.^ 4 ; u H *.-.-.H @ a 1 p 6.-.@ O o j j l n V OX",
"y y : : - - # # + , i r y r g ; O X r M.k.x.>X4X X9 D m.N.N.M.c.S e g V.A.u.u.V.y t < a X.X.!.BXCXqX3.-.o.qXCX- @ o & j l V }.OX",
"y y : $ - - # @ & 3 %.p.D.c.G.i X % S M.k.;X2X>X2Xl.k.M.N.N.v.v.v.f.s.Z.A.A.A.u.^ t ; | H ..5.qXCXBXqX-. .#.BX-.# + & Z k V }.oX",
"^ 4 - @ @ # @ @ > , d r 5 g r i $ % S m.k.m.2X>X3X2X8Xm.m.N.v.N._.h.Z.s.Z.A.u.V.y y ; a H X.-.-.-.4.5.o.X.X.5.BX) o Z k l [.}.OX",
"u % $ @   @ ^.2 + , s G.F.D.D.G.s X P m.M.m.aX2X2X2X8XT.T.v._._._._.C.J.C.A.A.V.^ t u < X.-.-.o.-.-.| 3 2 ) ) O.2 o j k c V [.OX",
"O O $ O 1 W.wXa & > * J i d y y d 4 r m.z.3X2X2X8Xk.D T L.c.J._._.H.g p.V.A.A.V.^ i u - < 2 2 2 | | 2 3 , , = = = & & v c V }.*X",
"$ $ @ < 0XI.0XwXH o & ..%.J.D.D.G.c.c.m.M.3X2X9XW A U E F.K.F.P.G.I I p i D.J.V.p.t u $ < , - , - , @ = @ = > = + & j k l [.[.*X",
"$ , O H 0XT tXQ.H N 3 > a %.d d F.g r M.m.3X9X,XA K :.I.I.I.I.F.@. .J J u i g V.^ s u ; < 2 , - = - $ $ O O $ = = + j b n V oX*X",
"$ * $ J P.T U.K.*.$X&.j & * u I %.c.T c.k.8XeXA K *.=.;.Q.0XeXK.F./.R.~ u p t s ^ y t u u a 2 , , $ * * A * * O > & l h n C oX} ",
"* $ a P.J I.c.K.@X@X.X_ C B B *.0XQ.F.Y P c.U A U X.=.P.uXdXuXK.rXVX(./. .< 1 < s ^ ^ R.R.,.7.,.+.U T W n.W D K M .._ l n } oXZ ",
"* * =.0X@.U Y Y Y U R C C +X&XpXyXZXiXiX=.* * K H *.@.0XSXsXsXF.sXVXtXK.I.p < < ~ R.R.R.R.,.3.+.E n.z.z.n.z.=Xz.W A _ oXV [.oX& ",
"* :.I.I.=.+.s J p N C V {.[.+X&XCXiXZXE O 1 , 1 -.J =.0XsXtXsX(.J.tXY.U =.K J #.^ ^ ^ ^ ^ ~ ~ J n.z.z.n.n.m.l.=Xl.@XC }.}.}.V & ",
"U CXeXP.@.-.<.) } V V {.[.[.OX&XyXZXyXM * < 1 4.BX<.$.P.0XT./.sXL.L.eX7XU U 3.0XcXR.R.^ ^ ^ s F.l.z.<X,X0X8X1X,XeXwX.Xm [.V & + ",
"eXVX=.wX$. .O._ } } } {.[.[.+XpX0XeX0X* $ , ) $X4.%XE.;.K.U.P.Q./.K.:.R K R +.0X^.R.cXcX^ ^ i n.l.<Xx.1XeXSX,X1XeXyX+XC }.oX+XwX",
"SXZXU.tXQ.W.U B V } } {.V .X7XY.U.Y.=.< , , <.O.o.2.X.P.+.+.-.3.Q.P.:.M H K -.!.^.~.(.cXcX~ I Y.<X;X>Xl.8X8Xx.l.1XeX.XC +X+X@XiX",
"8XiXeX0XVXQ.eX@X+X_ [.oXC @XU.L.L.P.q * 1 N 4...-.=.I U.K.U X.X.=.I.:.K N -.-.Q.cX^.(.~.cX%.I L.<X;X;X>X1Xz.l.l.z.1XXXR &X@X*.wX",
"8XE :.%XW.U.7X,X&.} oX_ U E Y.U.F.F.I * , o.<.-.:.0XT.aXT.T.U *.I.W.!.5.4.6.;.qX~.R.^.~.^.>. .J 1X>X;X;X;Xx.l.x.<X3X7X0X&XN X.wX",
"<XW R 4.E.F.n.m.K _ #X&.K.K.@.@.@.U J 1 3 ..) N J U.0X8X`.T.n.K.*.!.^.!.>.6.;.W.E.E.E.^.6.O.o. .U 1X<X=Xz.<Xl.z.l.z.Y.VX6.2.3.,.",
"=XW &.%XE.c.c.n.W &.:.=.Y.L.H 2 a | <.1.&.) N ..X.K tXSX'.T._.T.$.5.^.~.2.7.^.!.W.$.E.^.6.| 2.3.-.$X:.7Xn.1X1Xl.E E (.(.^.^.^.,.",
" XW +X%XE.G.r.c.K :.P.K.L.U.%.2 X.%XMXMX1.&.N ..N ..AXZXVX(.`.m.@.2.^.cXo.>.3.~.;.+.E.3.5.N 5.3.>.6.wX+.:.:.,X,Xn.U.(.(.R.R.,.,.",
"7XpX@X&.#.@.F.c.A =.U.g c.L.K.%.$.6.MXmX1.2.o.| 2 %XCXMXBXcXT.(.$.-.E.~.#.,.E.~.3.#.3.3.7.) 5.,.5.2.>.7.MX%X:.n.n.b.(.J.).).^ ,.",
"7XeX7XJ J E.rX/.n.n.T.r c.c.L.F.G.5.MXMX4.:.+.+.4.AXBX7.MXBX(.).+. .P.Q.$.W.Q.$. .$.3.3.2.>.6.#.3.BXxXMXmXMX$XU n.L.b.c.V.^ cXvX",
"7X7Xn.c.s !.VXQ.U W c.g P D.F.F.~.VXBXqXY.7Xn.U.ZXFXBXxXBX,.V.^. .a $.E.+.3.W.s ~ ^.W.3.2.#.#.$.^.BXcXMXMXMX4.qXm.m.r.p.g r (.vX",
"L c.c.c.d @.3.;.K A T m.c.c.c.eXDXZXCXZXeXn.8XE qXCXCXCXBX,.C.R.$. .%.^.#.#.W.%.$.E.^.3.$.#.#.!.^.~.>.zXMX1.4.I.,Xk.r.p.5 g J.'.",
"s f c.k.S T ..B > K W S P z.P c.U.ZXZXBXuXeX$X1.mXMXCXwXAX(.A.C.V.%.$.W.X.-.+.@.=.;.^.#.#.X.,.3.3.3.O.] MXzX7X@X@XG P p.4 g c.g.",
"< %.T.T.3X7XB ( M K D k.D D P P Y T tXVXtXCXMX#XmXmXMXwXVXDX).J.vXDX^.E.| X.;.L U K.3.O.#.#.#.^.E.cX7.7.MXMX@X@X+XR L r 8 5 r.e.",
"> <.U.2X<Xn.&.) 0 L S S S S S P P P d Q.qXBXBX1.kXMXCX:.0X0XVXZXBXcXBX#.2 X.W.K.n.Y J a #.,.E.^.E.cX!.cX2.O.BX&XoX&.I y 7 7 p.t.",
"` O.Q.T.<X=X+X..w e e e r r d r e d e Y I.qXCXMXMXCXiXT T Y Q.3. .>.$. .H -.!.Y n.n.* H -. . .R.E.cX6.xX,.o.MXmX_ _ a g y y.G.vX",
"{ ) ~.0X,X X&.K K q e q q e e w q q L I s I ~.wXZXZXeXS D Y L f u f f @.Y.I.P.I D n.T % ;.BXAXcX%.!.2.zXCXBXmX>._ ) ~ s ^ ^ ,.~ ",
"lXmXMXBX@X@X4.M 0 L @.0X/.Q.f e L e L w d I (.VXrX/.T.T e L F.G.G.U.I @.:.:.P.K.T.m.T @.VXKXAXKXcX . .!.BX!.7.) ! 3 1 a %. .<.] ",
"[ hX[ ] [ ' ' N * * w w ZXi w w w w * A Y D.b.p.C.D.F.f p p d g D.f s o.1._ I.8Xm.c.f ~.3.!.CXVXVX%.g c.D.F.$.| N ..+XR R R .X&.",
"gXjXjXjXgX[ ' ) a 0 w 9 A w w r w e 0 0 T d.d.Z.H.D.d 1 1 A P.Q.L P.wX<.1.&.K.b.r.g.).P.%.$.$.%.$.G.H.d.b.).tXVXCXCX.X|.|.].]..X",
"gXgXgXgX` hXMXBXs 9 T G W L T w n.n.q i c.H.Z.Z.D.f p B x R wXZX0XZXZX| a ^ H.`.f.f.d.d.H.C.D.p.A.Z.d.d.C.J.T.Y.7X.X].].]..XR pX",
"gXgX[ hXmX%X!.=.K 0 W A E D L q P S F.'.'.d.H.H.g < N R C R @X%XqXcX6.u Y H.C.Z.g.g.f.h.f.f.f.Z.Z.s.f.b.g g b.c.G m .X|.].F F F ",
"jX[ ' MXCX:.:.5.4.*.U U *.U =.Q.T.T.(.'.H.b.D.f u 1 3 B 3 1 N H | a < d H.H.Z.f.f.f.f.f.f.f.f.f.Z.f.H.V.t ~ Y W |.|.XX4X|.].].|.",
"[ ` _ wXiXeXiXiXyXBXyXwX%XwXtXrX(.p.d.a.f.D.f u 1 2 2 2 1 1 N 3 3 1 s D.s.S.f.f.f.f.f.f.f.f.f.f.f.Z.d.V.! ! +.W |.|.4X6X|.].].].",
"' &.wX9X9X9X9XpXR .X.XR R .Xm.H.b.d.d.H.D.f u 2 N 2 2 ) 3 N 3 N N u c.H.f.h.f.f.f.f.Z.S.f.v.S.h.S.f.Z.C.~ ! ...Xm |.6X6X].].].].",
"&.yX9X2X>X2X,XF m m b m m A r.p.a.i.a.a.i % $ - @ = $ @ , & & @ O i p.a.a.i.a.a.a.a.s.s.a.a.s.g.g.f.u.V.~ ! B }.|.XX6XXX].].].].",
"G 1X:X-X-X>X Xz v v v v z A 5 q.e.e.w.e.4 #.< $ 7.. o.a @ 4.X X. .% 7 7 8.6 8.6 6 6 6 8 6 6 6 8.8.8.0.7 i < Z b ]..X.Xm c {.c c ",
"G 3X:X5X-X>X Xv v v c h x A 5 e.9.e.w.e.% J , @ |   a 3 @ ..  a t i '.).'.'.'.(.'.).`.).T.J._.).J.J.J.R.G.J B n ]..X].v n n n {.",
"k.>X5X-X-X>X Xz v v v h x 0 5 e.e.q.w.e.% o., , #.  o.2 @ 2.  o.1 +.UXLXLXLXLXLXLXLXLXLXLXLXLXLXLXLXLXLXUXCXb n c n ].n n n n n ",
"D 2X-X-X-X>X Xz v c c z x 9 e.q.9.q.w.e.% H , O | . 2 < # O.. 2 < p rXQ./.T./.(.tX/.rXrXrXrXrXrXrXVXtXVXVX7Xm n c n n n v V b b ",
"k.3X:X-X-X>X=Xz h v c v x q 5 w.9.9.9.7 %  ., = #.. X.1 @ 2.   .H % p.t.t.t.r.r.t.t.t.t.t.t.r.r.g t.t.r r e x v v b k k b z b k ",
"G >X-X-X-X<XXXz h v v h x 9 0.9.9.9.w.e.%  .@ = | . H , @  .  2 < q sX`.aXaXaXaX`.`.`.`.`.`.`.T.T.`._.T.T.G.U &.R R R &.R &.R &.",
"G 3X:X:X<X9XuXCX+Xl c v z A 5 q.q.9.w.e.4  .- , o.. O.2 @ 2.# O.2 I LXHXHXHXHXHXLXHXHXHXHXHXHXHXKXHXSXHXHXDXVXVXVXVXVXVXbXVXVXVX",
"G 3X-X:X9X8X9 M yXm c h x 9 5 w.w.w.w.e.% f O O | . H , . J . N , A dX9XiX9XiX9XuXdXuXuXuXuXiXiXuXuXuXuXsXVXvXvXbXbXbXbXbXnXnXnX",
"k.:X:X;X8Xn.O O CXC h v x w 8 q.8.w.w.8.w % 9 9 * A 9 9 A 9 A A 0 n.9X1X2X2X2X2X8X2X2X2X2X1X1X2X2X<X<X<X8X8X(.bXbXbXnXnXbXbXbXnX",
"D 3X:X-X<X9X:.yX@Xl h h x 0 8 9.8.q.w.5 T.SXuXdXuXdXGXuXGXdXSXSXSXdXdXfXdXfXfXdXdXfXfXfX9X9X9X9X9X8XaX8XaX/.Q.vXvXnXnXnXnXnXnXnX",
"G 3X-X-X>X3X7XF v v h h x 9 7 q.q.9.q.8 tXJXJXJXJXJXJXKXJXJXJXKXJXJXKXKXJXKXKXSXQ.SXDXKXJXJXJXJXGXGXJXJXKXZXvXvX'.nXnXbXbXbXnX'.",
"D >X:X-X-X>X Xz v c c h x 0 5 9.8.8.w.8 =.7X@X%X$X$X%X@X$X@X#X@X#X$X@X+X$X$X%X&.J X.*.qX4.4.4.4.%X6.%X%XBXE.V.J.C.).).).).).).).",
"D 2X:X5X-X>X=Xz h c c h z A 8 0.q.8.q.7 * x j j k k j j j l k k b k j z j Z Z & M 1 K M 1 K K M x 3 & Z , * 4 6 6 0.6 0.6 0.6 0.",
"D 3X:X:X-X>X Xz c c v h x 9 8 9.0.q.w.8 *.$X+X&X$X#X$X&X&X&X&X&X&X&X&X&X&X&XCX%XBXa K J *.* P.K H N #X<.+XJ 8 0.0.0.0.0.8.9.0.0.",
"A 3X:X:X-X5X=Xz v c c h z * 5 9.0.w.w.6 ZXPXFXFXPXPXPXPXIXIXPXPXIXPXPXPXPXPXPXPXPXxXu f | H $.% a #.FXFXKX^.6 0.0.6 0.0.8.8.q.0.",
"A 3X>X:X:X>X=Xz z c h k x 0 8 0.0.0.0.8 E.MXMXzXMXzXzXzXzXkX1.1.1.kX1.1.kXmXkXkXkX<.~ $.O.1.#., #.#.zXkXcX$.4 y 6 6 6 6 6 0.0.6 ",
"D ,Xm.<Xl.1Xn.A x x B N H J g y g y.g ^ O.~ ) ] ) ] ] ) ] ] ] ' ] ] ] ] ` jX` ` ` ( O.O.' ` ` ! ] ) ( ` ! ! ~ y y t y ^ y y 8 t ",
"L D D D D D A L A R :.5.5.E.R.(.).^.^.^.xXzXkXkXkX1.kXkXkXkXlXlXhXhXhXjX` / / / / > ( ] [ [ ` ' ' ' ] hXhX>.,.kX,.zXzXcX3.cX^.^.",
"L L L L L D L L L L U @.;.P.E.R.3.3.7.,.7.,.>.7.<.1.7.1.] ] ` / / / / / / / Q Q ( } ( ( ( / Q Q ( / ` ` jXhXhXlXhXlXlXlXmXmXkXmX",
"D S L L L L L L I L L I  .+.%.%.,.>.2.2.>.7.2.4.2.<.7.O.! Q ` / / / / / / Q Q [ { [ _ _ [ [ ] ] ] ] ] hXgXhXhXgXhXhXlXhXhXhXhXlX"
};
