/* XPM */
static char *_f94b5e6a0ce4286825250fd75f43ceeERnbmHzqLkTdjX0B[] = {
/* columns rows colors chars-per-pixel */
"64 64 251 2 ",
"   c #0C0D0C",
".  c #040A0A",
"X  c #0E100F",
"o  c #16130A",
"O  c #0A0D11",
"+  c #0E1112",
"@  c #0D121A",
"#  c #131413",
"$  c #1D1A15",
"%  c #1B1C1A",
"&  c #171717",
"*  c #1A0A02",
"=  c #221C15",
"-  c #221D1A",
";  c #271914",
":  c #361C15",
">  c #301409",
",  c #1F2018",
"<  c #24221D",
"1  c #2B241C",
"2  c #2C281B",
"3  c #382519",
"4  c #312A14",
"5  c #1F2120",
"6  c #242422",
"7  c #2B2522",
"8  c #2C2B25",
"9  c #2C2C2B",
"0  c #26282D",
"q  c #342C23",
"w  c #372D26",
"e  c #3B3126",
"r  c #34332D",
"t  c #3C352B",
"y  c #393528",
"u  c #353632",
"i  c #3A3631",
"p  c #3D3B33",
"a  c #3B3B38",
"s  c #2F3030",
"d  c #161B21",
"f  c #411E16",
"g  c #592C1C",
"h  c #482B1E",
"j  c #42392E",
"k  c #4A3629",
"l  c #583727",
"z  c #443C32",
"x  c #483D35",
"c  c #583E33",
"v  c #4B2A22",
"b  c #623424",
"n  c #6B3C2C",
"m  c #653A2A",
"M  c #6B392C",
"N  c #55442E",
"B  c #4B4236",
"V  c #44433C",
"C  c #4A4438",
"Z  c #534B3D",
"A  c #5C4B3B",
"S  c #5A4736",
"D  c #504D35",
"F  c #6B442F",
"G  c #694636",
"H  c #744C35",
"J  c #794B36",
"K  c #7A4C3B",
"L  c #754737",
"P  c #66533B",
"I  c #7B523C",
"U  c #444541",
"Y  c #4B4B45",
"T  c #4C4D49",
"R  c #474946",
"E  c #544C43",
"W  c #584D44",
"Q  c #4E514B",
"!  c #52534D",
"~  c #5B5448",
"^  c #555652",
"/  c #565854",
"(  c #5A5B55",
")  c #5B5D59",
"_  c #5C5751",
"`  c #664D43",
"'  c #635442",
"]  c #6C5A43",
"[  c #655C4D",
"{  c #685948",
"}  c #755B49",
"|  c #655D53",
" . c #75564B",
".. c #5E605B",
"X. c #75634C",
"o. c #7A674D",
"O. c #62635D",
"+. c #6B6457",
"@. c #736454",
"#. c #7D6A52",
"$. c #736B5C",
"%. c #7B6A58",
"&. c #736A53",
"*. c #696A64",
"=. c #6E7169",
"-. c #74756D",
";. c #7D7566",
":. c #7B7C74",
">. c #787972",
",. c #776C62",
"<. c #83533D",
"1. c #804C3E",
"2. c #885A46",
"3. c #8C5948",
"4. c #95634C",
"5. c #816D55",
"6. c #866856",
"7. c #996A54",
"8. c #84735C",
"9. c #89755D",
"0. c #87755B",
"q. c #936853",
"w. c #AA755B",
"e. c #B17A5E",
"r. c #A26E55",
"t. c #847463",
"y. c #8D7B63",
"u. c #847B6B",
"i. c #8C7D6B",
"p. c #867766",
"a. c #927D65",
"s. c #947A68",
"d. c #887D71",
"f. c #A87965",
"g. c #B37C61",
"h. c #8C816D",
"j. c #94836B",
"k. c #9A896E",
"l. c #97856B",
"z. c #8C8374",
"x. c #8D897B",
"c. c #858379",
"v. c #9C8B73",
"b. c #938B7C",
"n. c #9D8E7B",
"m. c #958673",
"M. c #989279",
"N. c #A28E77",
"B. c #A3937B",
"V. c #A7947A",
"C. c #AD8368",
"Z. c #8A8A82",
"A. c #968D81",
"S. c #9B9383",
"D. c #969489",
"F. c #9C9C92",
"G. c #969590",
"H. c #8F908A",
"J. c #A49682",
"K. c #A59B84",
"L. c #AC9B83",
"P. c #A39B8C",
"I. c #AC9D8B",
"U. c #A69587",
"Y. c #B19E85",
"T. c #B59F8A",
"R. c #A59E92",
"E. c #A08F85",
"W. c #ACA28B",
"Q. c #B2A38B",
"!. c #B6A58B",
"~. c #A4A194",
"^. c #AAA494",
"/. c #ABA69A",
"(. c #ACAA9C",
"). c #A7A699",
"_. c #B5A693",
"`. c #BCAC95",
"'. c #B3AC9D",
"]. c #BAAC9B",
"[. c #B5A994",
"{. c #BCB29D",
"}. c #B5B09D",
"|. c #ACACA1",
" X c #B2ADA1",
".X c #BAAEA0",
"XX c #B5B2A4",
"oX c #BBB4A4",
"OX c #BBB6AA",
"+X c #BDBAAC",
"@X c #B8B6A8",
"#X c #BDBCB2",
"$X c #C3B49D",
"%X c #C9B79F",
"&X c #C0AD9C",
"*X c #CBBBA4",
"=X c #C3BDAC",
"-X c #C6B9A7",
";X c #C2BEB1",
":X c #CABEB1",
">X c #CBC1AD",
",X c #C4C0AF",
"<X c #D2C2AB",
"1X c #C5C2B4",
"2X c #CBC4B3",
"3X c #C7C5B9",
"4X c #CAC6BA",
"5X c #CCCABC",
"6X c #CEC9B6",
"7X c #D2C5B3",
"8X c #D3C9B5",
"9X c #D2CCBC",
"0X c #D9CCB7",
"qX c #DBD2BE",
"wX c #D7D0BE",
"eX c #E1D2BD",
"rX c #CECCC1",
"tX c #D2CEC2",
"yX c #D8CFC0",
"uX c #D5D2C4",
"iX c #DBD5C5",
"pX c #D7D4C8",
"aX c #DAD6C9",
"sX c #DDDACC",
"dX c #DCD8C7",
"fX c #DFDDD2",
"gX c #E3DCCC",
"hX c #E3D8C5",
"jX c #E2DED3",
"kX c #EADED2",
"lX c #F1DFD3",
"zX c #E7E0CE",
"xX c #E5E1D5",
"cX c #EBE4D4",
"vX c #E5E3DA",
"bX c #EAE6DB",
"nX c #EDEADD",
"mX c #EBE9D7",
"MX c #F2ECDC",
"NX c #F5EADA",
"BX c #F7F0DE",
"VX c #EEEDE2",
"CX c #EFEEE9",
"ZX c #F2EEE2",
"AX c #F4F1E5",
"SX c #F6F3EA",
"DX c #FAF5EB",
"FX c #FAF6EA",
"GX c #FDFAF3",
"HX c #FBF7F4",
"JX c #EFF0E2",
/* pixels */
"        # # % t i r w e e k 3 1 1 1 2 1 - - % % = ; o x c v : f v v f f b 3.6. .H P H I 2.7.w.e.e.w.e.w.w.4.3.4.3.4.4.r.w.e.e.e.",
"  . X   X # % r t q w e j e q q 1 2 1 1 - - - $ & ; ; : w 3 f : : : > b 3.q.2.2.I H H I } 4.4.r.r.w.w.r.J M J 1.1.<.r.r.r.e.g.g.",
"    X   X # $ 8 r w y j j t t e e 3 4 = = $ $ = - - ; ; : : > : : f : ` 2. .K H H H H J I J <.<.4.3.3.1.g g b M 1.<.r.w.e.g.g.g.",
"X   + # # # & - w t z j j j j e t 2 ; < $ $ o o ; ; o ; ; 7 v : : q v ` ` H G L F H H J I <.<.<.J <.<.<.M g b M 1.<.r.r.e.g.g.g.",
"    X # & & # = i x B x x x j t q < < = $ $ = = ; 7 - q k G ` S B k k c c m N n F J J J 1.1.1. .J K 1.1.M g b M J <.4.r.w.e.e.e.",
"      X # & & 7 i j j j j j e 3 8 1 < o o < 2 q : q k S _ ` S } A ' A k h v l m n F J <.<.3.3.3.3.L 1.M b g M M J <.4.r.w.e.e.e.",
"        X # - r x x z z z e q 8 7 7 1 - < 4 e k x B { t. .{ ` @.8.;.%.{ 3 3 v l F I <.<.J J 3.3.2.M 1.M b g b M J <.4.r.w.e.C.C.",
"  .   X X # - i V x z j j e q 2 7 7 7 ; 1 q x B Z @.h.J.I.t.X.t.B.i.z.%.%.k k k l F H n b n M 2.n M M M b g g 1.I <.4.4.w.e.C.C.",
"&       X # - r p j z x t w q 1 7 1 w - e W { W A ' k.N.V.l.0.n.I.h.i.u.S.u.p.%.G F l g b M L M L g M M b g b m J <.4.7.7.f.f.f.",
"9 9 6 % # X $ p z j z e x w 8 q 1 1 - t W %.$.t.%.{ X.P A #.W.Q.n.y.n.^.P.R.R.I.S.t.P h b  . .1.K b b M b b b M F J 3.6.7.q.f.f.",
"X % 0 9 9 6 8 p z x z j q B q < 1 1 x | $.u.b.i.W.W.' 3 > 4 n._.t.m.I.oX:X=X=X.XI.b.a.} M ` L 2.2.M M n M b M n H H I 2.6.q. .l ",
"    X # 6 i U W Y x t y j 2 t 2 e Z +.t.d.u.m.b.'.m.D ] D y t.[.m.J.:XhXmXaXsX=X/..X:X-XE.s.3.` n n n ` c n c n F H G G v f > * ",
"X       X 2 Y | [ Z y q q q q B | i.p.d.n.x.b.P.].[ [ [ B o A ,XU.].hXzXzXBXAXkXjXjXkXNXlX:Xs.c l g k l c G c k S k v j q ; o $ ",
"    o $ X $ i Y ~ ~ W B 2 2 e ~ x.d.S..X'./.-X:XdXu.B 4 o o D =X-X>X>X,X7XcXNXDXZXZXZXZXkX-Xn. .c l l c `  .S * w q 9 a 6 % X . ",
"6 % # & X < p z z Z W [ V 2 E -.d.D..XtXsXpXbXnXBXdXC o 4 D [ OX8X'.[.-X*X8XAXAXHXCXCXVXgX:X_.s.} A A A W | Z $ w i - & O @ @ @ ",
"5 9 u r 7 r Y V y w t C [ +.$.z.A.|.4XsXjXbXnXnXJXAX6X+.[ ~ h.8X}.^.{.$X-XiXZXDXCXCXCXVXjX:X.XU.i.t.u.;.` W W ; 7 7 X @ s d O @ ",
"X X # 9 z T E V C B q 2 D z.P.b.S.+XuXpXfXnXnXnXVXvXAX1X&.t.-X].W.[.`.].<XzXFXAXSXCXVXZXjX'.n.v.i.t.t.t.p.| | j - ; % s s d @ d ",
"# # # # 6 R _ [ E C C W [ +.b.oX}.+X4XdXvXxXxXvXbXjX#X^.S.M.E.n.!._.`.$X8XcXAXAXZXCXMXmXoXn.i.n.m.%.@.[ +.+.| j ; & 7 7   & & @ ",
"  # & $ - r r r B W ~ +.h.;.x.M.,X6X6XuXtX4XpXzX:XI.Y.U.Q._._._.L.`.$X-X8XvXBXnXVXlXmXeXI.I.Q.V.l.8.@.A A { | B - w 9 # O % 0 O ",
"& % % 6 r V V x y y ~ c.x.b.K.x.^.,X9X1XoX^.2X[. .6.s.E.B.B.L.`.`.!.{.2XjXNXMXmXbXlXeX<X$X&X`.V.j.t.#.' A A [ [ j i $ o - s 0 @ ",
"5 6 6 < i T Y B E | ;.h.;.M.~.^.@X6X=XoX=X>X0X%. .s.q.s.j.n.W.[.`.!.%XhXFXFXBXBXNXiX7X*X%XQ.N.9.6.#.X.P P S P { { W w 7 z s @ @ ",
"+ X # $ 7 z z C _ $.h.c.$.;.M.W.=X,X-XoX,XqX0X5.6.f.r.6.a.L.V.Q._.{.0XBXFXxX2X{.J.J._.*X%XV.l.0.5.o.X.P P S N S ` ,.| W U 0 O % ",
"# X # % 8 i a E -.A.b.u.$.;.b.~.{.@X=X=X8XhX*X6.f.s.f.s.5.j.K.(.[.-XzXBX0Xm.D y 4 4 k [ V.Q.a.a.0.6.5.} G N S N S Z ;.-.j 7 # - ",
"# # & # 7 V Y | x.~.P.A.M.F.}.+X+X{.-X=X2XqXI.5.7.6.g } o.%.z./.+XhXlX*X0.P P #.$.Z B 4 l l.V.N.a.8.8.X.N N G S S A  .d.,.7 ; w ",
"# + % 6 V ! ~ +.Z.~.S.z.$.[ $.b.(.oX'.=X:X:Xi.` s.6.` S  .d.(.tXmXnXzXB.` t.y.9.D , D &.4 D N.V.N.y.8.@.] ] I S N S ] 8.z.| B j ",
"5 5 9 8 u Y $.c.D.S.h.+.+.;.c.x.^.(.~.'.:X.X@.s._.:X:X&XU.0XAXDXAXmXNX-XU.p.o.D o , [ V.D y 8.!.L.l.8.X.P ] ] P S P P X.y.z.t.@.",
"% 5 < 6 u ! +.c.~.D.;.+.$.z.K.(.R.R.u.:.,. .d.].wXmXcXNXZXDXGXAXFXFXMXcXkXR.P 4 o y M.W.;.[ D W.Q.n.p.o.] ] X.X.P P o.#.%.y.a.8.",
"& # & < r p _ x.F.D.;.$.z.W.~.^././.R.d.E ` E..X6XgXMXZXZXGXSXDXAXGXFXFXZXmX[.B y ~ k.M.;.;.D M.Q.V.y.#.{ X.6.y.5.I ] #.0.a.a.%.",
"@ + 5 6 6 V :.P.W.z.h.b.~.^.^.(. X).)..XU.;.S..X6XgXuXnXAXDXHXHXGXDXGXGXDXDXAXiXM.u.h.X.X.%.X.#.v.a.%.] { %.0.9.0.o.o.o.o.0.a.a.",
"# d 5 # , ..F.).^.F.S.M.S.~.^.)./. X(.=XOXd.A..X=XdXjXfXAXDXSXSXGXHXGXGXGXDXAXgXwX<X$X!.W.!.M.o.o.5.5.X.X.0.i.y.j.j.5.o.o.5.0.a.",
"& , & & V =.F.}.~.S.b.x.^.(.'.}.XX).}.=X=XP.x./.:X9XyXbXnXCXGXHXHXHXGXGXFXGXAX8XL.I.&X&X%X!.V.j.X.o.6.o.X.#.0.j.k.k.j.j.9.j.l.N.",
"d # , U :.).@X@X(.~.^.(.}.(.{.@XXX}.}.OX-X.XU.A.oX8XaXjXDXJXDXHXHXGXGXFXGXSXMX6XK.k.l.j.l.k.C.j.0.5.8.#.] ] ] 0.k.M.N.k.v.!.!.!.",
", d 6 / H.|.@X@X|.@X@X@X@X@X+X+X@X.XOX=X=X=X'.z.U.;XaXZXvXSXSXGXHXGXDXDXDXFXmX>XW.j.j.j.l.v.V.l.X.#.#.5.X.] #.j.V.V.V.M.B.!.$X].",
"# , a O.c.F.|.|.@X@X#X1X1X3X,X+X@XXX=XoX=X6X2XW.S.:XtXxXJXJXGXCXSXSXSXDXAXAXgX>XK.k.j.l.v.k.V.Q.0.#.5.0.#.] #.v.W.V.V.M.S.{.$X$X",
"# 5 s Q :.).@X@X1X1X3X3X5X5X1X@XXXXX.XXX:X8X2XOXR.+XuXgXJXnXJXSXCXJXJXJXMXZXpX{.W.j.9.N.N.k.V.V.k.#.8.h.0.#.o.#.M.h.M.M.m.I.-X_.",
"& 6 u O.F.|.@X#X3X3X3X5XuXrX3X1X=XOXoXXX=X5X6X2XOX.XtXaXsXAXnXJXVXVXVXvXVXMXdX-XQ.W.l.l.N.B.V.V.j.#.X.0.j.y.#.X.] ] ] h.n._.].b.",
"6 6 U >.F.).@X3X5X5X5XuXuXuX5X5X4X,X=X@X{.2X9X>X1X2X5X5X5XmXvXvXZXnXMXxXbXbXgX0X<X`.V.V.V.N.V.V.j.9.0.9.9.j.9.5.P N A %.R.J.u.u.",
"& 9 Y -.F.XX#X3X3X3X5XrXpXpXuX5X5X9X1X=XOXoX{.OX2XhXiX9X5X5XpXmXnXbXvXjXgXmXhX0X0X<X%X!.!.V.V.k.0.8.j.j.j.j.j.j.t.X.~ h.b.A ;.$.",
", 9 R >.).|.#X3X3X5XuXpXpXpXpXpXiXuX9X8X2X}.^.{.-XyXgXgXdX5X6XdXaXkXjXsXgXgXyX:X0X<X*XV.V.V.V.N.h.j.j.j.j.l.j.l.m.$.[ +.W C $.W ",
", 8 / Z.).@X1X1X3X3XrXpXsXpXdXdXdXuXqXuX-XOXoX^.oXiXiXkXsXdXdXdX9XiXaXgXgXtX9X6X<X$X!.V.V.V.l.9.5.h.j.l.l.l.k.N.m.%.B j B Z ~ D ",
"5 u ..Z.|.@X@X1X3X5XrXpXfXsXfXsXiXiXqX6X,X,X,X}.6X6XqXzXhXgXzXzXaX8XaXcXfXdXgXwX>X`.Q.!.Y.!.V.j.8.0.j.l.v.v.B.K.u.B j j p C Z C ",
", s O.H.).|.#X#X3XrXrXpXpXpXpXpXsXdX9X1X6X6X,X=X6X6XhXhXzXzXhXhXcXgXaXaXsXsXgXhX0X{.!.`.!.V.V.V.k.k.k.l.v.N.L.W.p.q = < 2 p z t ",
"& a O.H.|.@X#X1X5XrXrXpXpXpXpXpXuXwX,X,X6X6X,X>X}.6XqXqXqXqXqXzXmXgXdXaXdXdXgXhXdX$XQ.$XY.Y.!.N.v.V.B.N.M.V.W.M.$.t 7 < 6 2 8 y ",
"8 V ( c.).|.@X3X5XrXpXpXpXpXpXpXiX5X,X#X,X>X>X{.W.{.*X6X8X8XhXhXgXgXzXgXuXuXdXdXwX$X$X$X!.V.!.N.V.M.l.l.N.W.^.M._ V p a u p p p ",
"6 , R :.).@X#X3X5XrXpXuX5X5X5X5XwX5X6X3X6X6X>X,X{.{.!.%X<X<XeX<XhXcXzXzXfXuX9XdX9X*X<X<X*X%X!.V.L.v.l.j.V.[.W.h.R U U a U U U V ",
", s O.Z.).|.#X3XrXrX5X5X5X5X6X3X3X5X5XdXzXwX<X8X<X`.[.`.`.%X0X0XhXzXcXmXmXfXuXiXiX7X<X0X<X0XY.v.v.v.n.k.V.!.M.O.R R R U U V V U ",
", u ( c.|.#X#X3XrX5X3X3X5X3X1X1X3X5XpXdXqXwX6XqX0X<X*X`.`.$X0XeXhXhXmXMXmXmXxXiXwX8X7X0X%X$Xv.l.v.v.V.B.W.W.h.Z Q R R R R R U U ",
"< u / G.|.#X3X3X3X3X5X5X1X#X+X1X3X3X6X,X=X,XwXqXqXqX8X>X%X<XeXhXzXmXnXnXJXJXbXxXiXqX7X*X&X!.k.0.a.v.V.L.W.M.*.Q Q R Q R R R Y Y ",
"8 V -.F.|.#X#X3X3X5X1X#X@X,X3X3XOXXX X XXX=X9XdXdXdXdXqX9XiXkXcXbXbXnXnXVXVXBXnXcXyX8X!.T.Y.y.y.l.v.B._.U.u._ Y Y Y R T T T R R ",
", / c.D.|.#X#XrX5X3X,X#X,X3X,X+X XXXXX XOX4XwXiXdXzXgXdXgXgXmXmXMXVXVXVXVXJXVXMXNXhX7XY.N.V.l.l.B.B.J.'.S.| ^ R T T R T R T T T ",
"D O.O.:.|.@X3XuX5X3X#X#X3X3X+X}.+XXX|.XX1X5X9XuXdXzXzXzXgXmXMXMXZXZXnXJXVXJXJXMXNXhX-X!.N.N.k.k.K.L._.OXA.! T T R T T R R T T T ",
"U y / H.F.#XrX5X5X3X3X3X6X,X+X@XXXOXOX;X9XuX9XiXgXxXxXzXkXvXMXbXZXZXVXVXVXJXJXmXNXiX-X_.B.V.k.N.Y._.=X=XA._ T T T T T T Q T T Q ",
", a =.:.).#XrXrX5X5X6X5X,X+X+X,X#X;X1X6XiX9X1X2XdXcXxXzXxXvXVXMXnXMXZXVXJXJXnXmXmXzX*X`.I.L.U.U.[.2X1X+Xc.! ! T ! Q Q Q Q Q Q T ",
"V ! Y Z.|.#X3X5X5X5X5X5X6X1X,X3X4X5X9XuX3XXXXX1XiXfXfXaXxXcXnXVXnXMXJXAXJXJXnXvXzXhX>X{._.T.`.`.-X2X=X).-._ ! ^ ^ ! ! ! Q Q Q Q ",
"U V :.c.).@X#X3XuXuXpXuX5X5X3X3X6X9X5X,X@X@XOXOXuXaXpXaXfXcXvXmXmXZXAXVXVXnXmXcXcXiX>X-X-X-X:X:X9X XR.c.O.) ! ^ ^ Q Q ! ! ! Q T ",
"U *...:.F.).#X#X5XpXpXpX5XuX5XuX9X5X4X,X@X}.OXOXuXdXpXpXxXvXvXbXbXnXVXZXVXnXvXxXzXiX8X7X:XyXhX5XuXF.c.-.| ^ ^ ^ ^ ^ ! Q Q Q Q Q ",
"/ U ..Z.F.F.|.1X5XuXpXuXrXrXpXrXtXtX:X:X;XXXXX1XaXpXpXpXvXvXvXfXxXVXVXVXVXVXfXjXjXiXyXyXyXaXaXOX#XH.-.*.O./ ^ / ^ ^ Q ! / ! ! ! ",
"u U *.:.Z.F.@X#X5X5XuXuXpXpXpXuXyXyXyXrX:X=X=X4XtXpXtXfXjXfXfXpXjXvXVXvXvXvXvXfXjXsXjXgXaX:XpXR.G.Z./ ) ../ ^ / / ^ / / / ! / ! ",
"u U -.>.:.).F.XX#X3XrXpXuXpXpXuXaXaXyXyXrX3X3X5XtXtXtXjXfXfXrXrXjXjXvXVXvXvXfXjXvXjXjXjXpX/.;XZ.>.:.Q ) O.) ) ) / / / ( / / / ! ",
"u ..-.>.Z.c.F.).|.3XuXpXrXuXuXpXaXaXaXaXtXtX9X5XtXtXpXfXfXfXrXtXjXjXjXjXvXfXvXjXjXjXfXfXrXZ.G.H.=.:.) / ) / ) / / ) ) ( / / / / ",
"Q ....=.-.Z.c.Z.).@X5X3X5XuXpXpXjXaXaXgXiXuXtXrXtXtXaXjXfXtXrXpXvXfXfXfXfXvXfXvXfXpXpXuX#X>.>.H.=.=.*./ ( / ( / ( ( ( ( ( ( ( / ",
"Q Q ..! -.=...M.).@X@X#X3XrXpXpXgXaXaXaXiXaXpXyXtXtXjXaXfXpXuXfXvXfXfXfXfXfXfXfXfXrX3X3XF.>.*.Z.-...*./ ) ( / ) ( ( ( ( / ( ( / ",
"V Q R ..O.U =.x.F.).).|.#X5X5XpXgXiXsXsXaXiXpXyXtXpXaXaXfXpXfXfXfXfXfXfXfXfXfXpXtXXX|.|.Z.>.*.-.=.) O.) ( / ^ ) ( ) ( ( / ) ( / ",
"R a Q ( V / :.c.Z.Z.x.).#X3X3XpXaXaXaXgXpXyXtXaXtXaXpXaXpXpXpXpXfXpXfXfXpXfXfXrX#X|.G.).:.=.O.*.*.*...O...( ( O.) ) ) ) ) ) ) / "
};
